<svg width="96" height="96" viewBox="0 0 96 96" fill="none" xmlns="http://www.w3.org/2000/svg">
  <rect width="96" height="96" rx="20" fill="#111827"/>
  <path d="M0 62C11 58 21 53 33 53C47 53 58 61 72 58C81 56 88 48 96 40V96H0V62Z" fill="#102A43"/>
  <path d="M8 22C19 28 28 33 40 32C52 31 62 22 74 24C82 25 89 31 96 37" stroke="#263244" stroke-width="8" stroke-linecap="round"/>
  <path d="M2 78C17 69 29 63 42 61C56 59 65 65 77 63C86 62 91 56 98 52" stroke="#243244" stroke-width="8" stroke-linecap="round"/>
  <path d="M16 14C22 24 24 35 22 47C20 57 16 66 11 77" stroke="#374151" stroke-width="4" stroke-linecap="round"/>
  <path d="M59 13C63 23 64 34 61 45C58 55 57 65 58 77" stroke="#334155" stroke-width="4" stroke-linecap="round"/>
  <path d="M7 71C20 65 31 59 43 49C54 41 64 31 86 18" stroke="#38BDF8" stroke-width="6" stroke-linecap="round"/>
  <path d="M12 25C27 30 37 35 49 42C59 48 71 55 83 68" stroke="#F59E0B" stroke-width="4" stroke-linecap="round"/>
  <circle cx="66" cy="29" r="5" fill="#E2E8F0"/>
</svg>
