<svg width="96" height="96" viewBox="0 0 96 96" fill="none" xmlns="http://www.w3.org/2000/svg">
  <rect width="96" height="96" rx="20" fill="#284D2B"/>
  <path d="M0 16C13 13 23 18 33 25C42 31 51 34 63 30C74 27 85 18 96 20V49C85 48 76 52 67 58C56 66 46 70 34 66C22 62 13 52 0 55V16Z" fill="#5F7A3A"/>
  <path d="M0 58C10 56 19 60 27 67C37 76 47 80 60 77C73 74 84 62 96 60V96H0V58Z" fill="#3E6233"/>
  <path d="M49 34C55 31 61 32 65 37C69 42 69 48 66 54C62 61 55 65 48 68C41 71 33 74 28 69C23 64 23 56 26 50C30 42 40 38 49 34Z" fill="#8E7456"/>
  <path d="M8 71C20 64 32 58 44 48C54 40 64 31 86 15" stroke="#FEF3C7" stroke-width="8" stroke-linecap="round"/>
  <path d="M8 71C20 64 32 58 44 48C54 40 64 31 86 15" stroke="#FFFFFF" stroke-width="3.5" stroke-linecap="round"/>
  <path d="M12 23C26 28 38 33 50 40C60 45 71 53 83 66" stroke="#FFFFFF" stroke-width="3" stroke-linecap="round" stroke-opacity="0.9"/>
  <rect x="22" y="58" width="20" height="11" rx="5.5" fill="#F8FAFC" fill-opacity="0.92"/>
  <text x="32" y="66" text-anchor="middle" font-size="7" font-family="Arial, sans-serif" fill="#334155">A1</text>
  <rect x="55" y="18" width="22" height="11" rx="5.5" fill="#F8FAFC" fill-opacity="0.92"/>
  <text x="66" y="26" text-anchor="middle" font-size="7" font-family="Arial, sans-serif" fill="#334155">北通り</text>
</svg>
