<svg width="96" height="96" viewBox="0 0 96 96" fill="none" xmlns="http://www.w3.org/2000/svg">
  <rect width="96" height="96" rx="20" fill="#264E2A"/>
  <path d="M0 0H96V26C82 24 72 28 63 33C55 37 48 39 36 34C24 29 13 21 0 23V0Z" fill="#486F31"/>
  <path d="M0 29C14 24 24 26 36 34C47 41 56 42 68 38C77 35 86 30 96 33V62C85 61 77 66 68 72C58 79 49 82 36 78C22 74 13 66 0 68V29Z" fill="#6A7F39"/>
  <path d="M0 72C13 69 21 73 30 80C39 87 48 90 61 86C74 82 84 71 96 70V96H0V72Z" fill="#3B6232"/>
  <path d="M48 32C54 29 61 31 65 36C70 42 70 49 66 56C62 62 55 66 49 69C42 72 35 75 29 72C22 68 21 58 24 51C28 42 39 37 48 32Z" fill="#8A6E4F"/>
  <path d="M54 38C58 36 63 37 66 40C69 44 69 49 67 53C64 58 59 61 54 63C49 65 44 67 40 65C35 62 34 56 36 51C39 45 46 42 54 38Z" fill="#9A7B5C"/>
  <path d="M9 12L21 18L16 29L6 24L9 12Z" fill="#355C36" fill-opacity="0.65"/>
  <path d="M77 15L90 23L84 34L71 26L77 15Z" fill="#2D5530" fill-opacity="0.7"/>
</svg>
