<svg width="96" height="96" viewBox="0 0 96 96" fill="none" xmlns="http://www.w3.org/2000/svg">
  <rect width="96" height="96" rx="20" fill="#1A3A5C"/>
  <path d="M0 0H96V20C80 18 68 22 56 28C44 34 32 36 18 30C10 26 5 18 0 16V0Z" fill="#1E5C87"/>
  <path d="M0 20C14 16 26 18 38 26C50 34 60 36 74 30C83 26 90 20 96 22V50C82 48 72 54 62 60C50 67 40 70 26 64C12 58 6 46 0 48V20Z" fill="#4B8B6A"/>
  <path d="M0 52C10 49 20 52 30 58C40 65 52 68 66 62C78 56 86 48 96 50V96H0V52Z" fill="#2D6B4A"/>
  <path d="M50 28C58 24 66 26 70 32C75 39 74 47 70 54C65 61 57 65 50 68C43 71 35 74 28 70C20 66 19 56 22 48C26 39 39 34 50 28Z" fill="#7D6B40"/>
  <path d="M56 34C62 31 68 33 71 38C74 43 73 50 70 55C67 61 61 64 56 66C51 68 45 70 40 67C34 63 33 55 36 49C40 42 48 39 56 34Z" fill="#9E8B58"/>
  <rect x="10" y="8" width="6" height="6" rx="1" fill="#FFFFFF" fill-opacity="0.15"/>
  <rect x="80" y="12" width="4" height="4" rx="1" fill="#FFFFFF" fill-opacity="0.12"/>
  <circle cx="20" cy="20" r="1.5" fill="#FFFFFF" fill-opacity="0.4"/>
  <circle cx="75" cy="18" r="1" fill="#FFFFFF" fill-opacity="0.35"/>
  <circle cx="88" cy="8" r="1.5" fill="#FFFFFF" fill-opacity="0.3"/>
</svg>
