<svg width="96" height="96" viewBox="0 0 96 96" fill="none" xmlns="http://www.w3.org/2000/svg">
  <rect width="96" height="96" rx="20" fill="#F7F4EE"/>
  <path d="M4 60C16 54 25 48 37 47C50 46 61 55 72 52C81 49 87 40 92 34V96H4V60Z" fill="#D6EAF7"/>
  <path d="M8 25C20 32 31 37 43 35C56 33 67 23 77 25C84 27 89 33 92 37" stroke="#D0D5DD" stroke-width="6" stroke-linecap="round"/>
  <path d="M-2 76C11 69 24 62 37 60C51 58 59 64 71 62C80 61 88 55 98 49" stroke="#C7CDD4" stroke-width="7" stroke-linecap="round"/>
  <path d="M17 10C24 18 28 29 28 41C28 53 23 63 15 72" stroke="#CBD5E1" stroke-width="4" stroke-linecap="round"/>
  <path d="M52 12C58 18 62 27 62 38C62 50 57 61 48 71" stroke="#D5D9E0" stroke-width="4" stroke-linecap="round"/>
  <path d="M64 67C70 67 75 61 79 55C83 49 87 44 94 42" stroke="#5EA5D7" stroke-width="5" stroke-linecap="round"/>
  <path d="M6 52C16 51 25 47 34 40C44 32 52 26 63 24" stroke="#5EA5D7" stroke-width="4" stroke-linecap="round"/>
  <circle cx="72" cy="25" r="6" fill="#E8EEF3"/>
  <circle cx="23" cy="66" r="5" fill="#EEF2F6"/>
</svg>
